<?xml version="1.0" encoding="utf-8"?>
<!-- Generator: Adobe Illustrator 21.0.0, SVG Export Plug-In . SVG Version: 6.00 Build 0)  -->
<svg version="1.1" id="Ebene_1" xmlns="http://www.w3.org/2000/svg" xmlns:xlink="http://www.w3.org/1999/xlink" x="0px" y="0px"
	 viewBox="0 0 32 32" style="enable-background:new 0 0 32 32;" xml:space="preserve">
<style type="text/css">
	.st0{fill:#85ADCB;}
	.st1{fill:#497ECF;}
	.st2{fill:#252526;}
</style>
<title>folder.ts.close</title>
<g id="Bases">
	<path class="st0" d="M30,5v20c0,0.6-0.4,1-1,1H5c-0.6,0-1-0.4-1-1V9c0-0.6,0.4-1,1-1h7l2-4h15C29.6,4,30,4.4,30,5z M28,8V6H16l-1,2
		H28z"/>
</g>
<g id="Overlays">
	<g id="_编组_">
		<path class="st1" d="M24.1,31c-0.9,0-1.7-0.1-2.5-0.3c-0.7-0.2-1.4-0.4-2.1-0.7l-0.7-0.4l0.9-3.3l1.4-0.6c0.5,0.2,1,0.4,1.5,0.5
			c0.6,0.1,1.1,0.2,1.7,0.2c0.4,0,0.8,0,1.2-0.2c0.1-0.1,0.1-0.1,0.1-0.2s0-0.1-0.2-0.2c-0.5-0.3-1-0.6-1.6-0.7
			c-3.1-1-4.7-2.7-4.7-5c0-0.7,0.2-1.4,0.5-2.1c0.3-0.6,0.8-1.1,1.3-1.6c0.6-0.5,1.3-0.8,2.1-1c0.9-0.3,1.7-0.4,2.6-0.4
			c1.4,0,2.8,0.2,4.1,0.8l0.8,0.4l-1,3.3l-1.4,0.6c-0.8-0.4-1.7-0.6-2.6-0.5c-0.3,0-0.7,0-1,0.2c0,0-0.1,0.1-0.1,0.1
			c0,0,0,0.1,0.1,0.1c0.1,0.1,0.2,0.1,0.3,0.2c0.2,0.1,0.4,0.2,0.7,0.3l1,0.4c1.2,0.4,2.3,1,3.2,1.9c0.8,0.8,1.2,1.9,1.2,3.1
			c0,0.6-0.1,1.1-0.3,1.6c-0.2,0.5-0.5,1-0.9,1.5c-0.4,0.4-0.9,0.8-1.4,1.1c-0.6,0.3-1.3,0.6-1.9,0.7C25.7,30.9,24.9,31,24.1,31z
			 M10.4,31V19.7H7V15h12v4.7h-3.4V31H10.4z"/>
		<path class="st2" d="M25.7,16c1.3,0,2.5,0.2,3.7,0.7l-0.7,2.5c-0.9-0.4-2-0.7-3-0.6c-0.5,0-1.1,0.1-1.6,0.4
			c-0.3,0.2-0.5,0.5-0.5,0.9c0,0.2,0,0.3,0.1,0.5c0.1,0.1,0.2,0.3,0.3,0.4c0.2,0.1,0.3,0.3,0.5,0.4c0.2,0.1,0.5,0.2,0.8,0.3l1,0.4
			c1.1,0.3,2,0.9,2.9,1.6c0.6,0.7,0.9,1.5,0.9,2.4c0,0.4-0.1,0.9-0.2,1.3c-0.2,0.4-0.4,0.8-0.7,1.1c-0.3,0.4-0.7,0.7-1.1,0.9
			c-0.5,0.3-1.1,0.5-1.6,0.6c-0.7,0.2-1.4,0.2-2.1,0.2c-0.8,0-1.6-0.1-2.3-0.2c-0.6-0.1-1.2-0.3-1.8-0.6l0.7-2.5
			c0.5,0.3,1.1,0.5,1.7,0.6c0.7,0.2,1.3,0.3,2,0.2c0.6,0,1.2-0.1,1.7-0.4c0.4-0.2,0.6-0.6,0.6-1.1c0-0.4-0.2-0.8-0.5-1
			c-0.6-0.4-1.2-0.7-1.9-0.9c-2.7-0.9-4-2.2-4-4c0-0.6,0.1-1.1,0.4-1.6c0.3-0.5,0.6-1,1.1-1.3c0.5-0.4,1.1-0.7,1.7-0.9
			c0.7-0.2,1.5-0.3,2.3-0.3 M18,16v2.7h-3.4V30h-3.2V18.7H8V16H18 M25.7,14c-1,0-1.9,0.1-2.9,0.4c-0.9,0.2-1.7,0.7-2.4,1.2
			c-0.1,0.1-0.3,0.2-0.4,0.4V14H6v6.7h3.4V32h7.2V20.7h1.6c0.2,1.8,1.4,3.5,3,4.3l-2.5,1.1L18,28.6l-0.4,1.6l1.4,0.7
			c0.7,0.4,1.5,0.6,2.3,0.8c0.9,0.2,1.8,0.3,2.8,0.3c0.9,0,1.7-0.1,2.6-0.3c0.8-0.2,1.5-0.4,2.2-0.8c0.6-0.4,1.2-0.8,1.7-1.3
			c0.5-0.5,0.8-1.1,1.1-1.8c0.2-0.6,0.3-1.3,0.3-2c0-1.4-0.5-2.8-1.4-3.8c-0.6-0.6-1.2-1.1-1.9-1.4l2-0.9l0.7-2.5l0.5-1.7l-1.6-0.7
			C28.8,14.2,27.2,14,25.7,14z"/>
	</g>
</g>
</svg>
