<?xml version="1.0" encoding="utf-8"?>
<!-- Generator: Adobe Illustrator 21.0.0, SVG Export Plug-In . SVG Version: 6.00 Build 0)  -->
<svg version="1.1" id="Ebene_1" xmlns="http://www.w3.org/2000/svg" xmlns:xlink="http://www.w3.org/1999/xlink" x="0px" y="0px"
	 viewBox="0 0 32 32" style="enable-background:new 0 0 32 32;" xml:space="preserve">
<style type="text/css">
	.st0{fill:#85ADCB;}
	.st1{fill:#252526;}
	.st2{fill:#FFC017;}
</style>
<title>folder.lib.open</title>
<g id="Bases">
	<g id="_编组_">
		<path id="_复合路径_" class="st0" d="M28,4c1.1,0,2,0.9,2,2v18c0,1.1-0.8,2-1.8,2c-0.1,0-0.1,0-0.2,0V6H16l-2,4H6v6h16l6,10H6
			L0,16h4v-6c0-2,2.5-2,2-2h7l2-4H28z"/>
	</g>
</g>
<g id="Overlays">
	<g id="_编组_2">
		<path id="_复合路径_2" class="st1" d="M20,32c-2.2,0-4-1.7-4-3.8c0-0.1,0-0.1,0-0.2V18c0-2.2,1.7-4,3.8-4c0.1,0,0.1,0,0.2,0
			h8.8l3.2,4.1V28c0,2.2-1.7,4-3.8,4c-0.1,0-0.1,0-0.2,0H20z"/>
		<path id="_复合路径_3" class="st2" d="M26.6,16h-6.7c-1.1,0-1.9,0.8-1.9,1.9c0,0,0,0.1,0,0.1v10c0,1.1,0.8,1.9,1.8,2
			c0,0,0.1,0,0.1,0h8c1.1,0,2-0.8,2.1-1.9c0,0,0,0,0-0.1v-7.7L26.6,16z M28,24L28,24v4h-8V18h6v2h2V24z"/>
		<rect id="_路径_" x="22" y="20" class="st2" width="4" height="2.1"/>
		<rect id="_路径_2" x="22" y="24" class="st2" width="4" height="2"/>
	</g>
</g>
</svg>
