<?xml version="1.0" encoding="utf-8"?>
<!-- Generator: Adobe Illustrator 21.0.0, SVG Export Plug-In . SVG Version: 6.00 Build 0)  -->
<svg version="1.1" id="Ebene_1" xmlns="http://www.w3.org/2000/svg" xmlns:xlink="http://www.w3.org/1999/xlink" x="0px" y="0px"
	 viewBox="0 0 32 32" style="enable-background:new 0 0 32 32;" xml:space="preserve">
<style type="text/css">
	.st0{fill:#85ADCB;}
	.st1{fill:#252526;}
	.st2{fill:#F0400A;}
</style>
<title>folder.include.close</title>
<g id="Bases">
	<path class="st0" d="M30,5v20c0,0.6-0.4,1-1,1H5c-0.6,0-1-0.4-1-1V9c0-0.6,0.4-1,1-1h7l2-4h15C29.6,4,30,4.4,30,5z M28,8V6H16l-1,2
		H28z"/>
</g>
<g id="Overlays">
	<path class="st1" d="M24.7,17.5L22,20.2V20h-6v0.2l-2.7-2.7L5.8,25l7,7h1.1l2.2-2.2V30h6v-0.2l2.2,2.2h1.1l6.8-6.8v-0.5L24.7,17.5z
		"/>
	<path class="st2" d="M14.7,28.3L11.4,25l3.3-3.3l-1.4-1.4L8.6,25l4.7,4.7L14.7,28.3z M29.4,25l-4.7-4.7l-1.4,1.4l3.3,3.3l-3.3,3.3
		l1.4,1.4L29.4,25z M22,24h-2v-2h-2v2h-2v2h2v2h2v-2h2V24z"/>
</g>
</svg>
