<?xml version="1.0" encoding="utf-8"?>
<!-- Generator: Adobe Illustrator 21.0.0, SVG Export Plug-In . SVG Version: 6.00 Build 0)  -->
<svg version="1.1" id="Ebene_1" xmlns="http://www.w3.org/2000/svg" xmlns:xlink="http://www.w3.org/1999/xlink" x="0px" y="0px"
	 viewBox="0 0 32 32" style="enable-background:new 0 0 32 32;" xml:space="preserve">
<style type="text/css">
	.st0{fill:#85ADCB;}
	.st1{fill:#FFFFFF;}
	.st2{fill:#252526;}
	.st3{fill:#F05133;}
</style>
<title>folder.git.open</title>
<g id="Bases">
	<g id="_编组_">
		<path id="_复合路径_" class="st0" d="M28,4c1.1,0,2,0.9,2,2v18c0,1.1-0.8,2-1.8,2c-0.1,0-0.1,0-0.2,0V6H16l-2,4H6v6h16l6,10H6
			L0,16h4v-6c0-2,2.5-2,2-2h7l2-4H28z"/>
	</g>
</g>
<g id="Overlays">
	<g id="_编组_2">
		<g id="_编组_3">
			<path class="st1" d="M22,31.2c-0.5,0-1-0.2-1.3-0.5l-7.4-7.4c-0.7-0.7-0.7-1.9,0-2.6l7.4-7.4c0.7-0.7,1.9-0.7,2.6,0c0,0,0,0,0,0
				l7.4,7.4c0.7,0.7,0.7,1.9,0,2.6l-7.4,7.4C23,31.1,22.5,31.3,22,31.2z"/>
			<path class="st2" d="M22,13.5c0.3,0,0.6,0.1,0.8,0.3l7.4,7.4c0.4,0.4,0.4,1.1,0,1.5l-7.4,7.4c-0.4,0.4-1.1,0.4-1.5,0l-7.4-7.4
				c-0.4-0.4-0.4-1.1,0-1.5l7.4-7.4C21.4,13.6,21.7,13.5,22,13.5 M22,12c-0.7,0-1.4,0.3-1.8,0.8l-7.4,7.4c-1,1-1,2.7,0,3.7l7.4,7.4
				c1,1,2.7,1,3.7,0l7.4-7.4c1-1,1-2.7,0-3.7l-7.4-7.4C23.3,12.3,22.7,12,22,12z"/>
		</g>
		<g id="_编组_4">
			<path class="st3" d="M30.2,22.8l-7.4,7.4c-0.4,0.4-1.1,0.4-1.5,0l-7.4-7.4c-0.4-0.4-0.4-1.1,0-1.5l5.1-5.1l1.9,1.9
				c-0.2,0.5-0.1,1,0.3,1.4c0.1,0.1,0.1,0.1,0.2,0.1v4.7c-0.1,0.1-0.2,0.2-0.3,0.3c-0.6,0.5-0.6,1.3-0.1,1.9c0.3,0.3,0.6,0.5,1,0.5
				c0.1,0,0.2,0,0.3,0c0.7-0.1,1.2-0.8,1.1-1.5c0-0.2-0.1-0.4-0.2-0.5c-0.1-0.2-0.3-0.4-0.5-0.5v-4.6l1.8,1.8
				c-0.3,0.7,0,1.4,0.7,1.7c0.7,0.3,1.4,0,1.7-0.7c0.3-0.7,0-1.4-0.7-1.7c-0.3-0.1-0.6-0.1-0.9,0L23.3,19c0.2-0.7-0.1-1.4-0.8-1.7
				c-0.3-0.1-0.6-0.1-0.8,0l-2-2l1.5-1.5c0.4-0.4,1.1-0.4,1.5,0c0,0,0,0,0,0l7.4,7.4C30.6,21.6,30.6,22.3,30.2,22.8
				C30.2,22.8,30.2,22.8,30.2,22.8z"/>
		</g>
	</g>
</g>
</svg>
