<?xml version="1.0" encoding="utf-8"?>
<!-- Generator: Adobe Illustrator 21.0.0, SVG Export Plug-In . SVG Version: 6.00 Build 0)  -->
<svg version="1.1" id="Ebene_1" xmlns="http://www.w3.org/2000/svg" xmlns:xlink="http://www.w3.org/1999/xlink" x="0px" y="0px"
	 viewBox="0 0 32 32" style="enable-background:new 0 0 32 32;" xml:space="preserve">
<style type="text/css">
	.st0{fill:#85ADCB;}
	.st1{fill:#252526;}
	.st2{fill:#57AA54;}
</style>
<title>folder.src.close</title>
<g id="Bases">
	<path class="st0" d="M30,5v20c0,0.6-0.4,1-1,1H5c-0.6,0-1-0.4-1-1V9c0-0.6,0.4-1,1-1h7l2-4h15C29.6,4,30,4.4,30,5z M28,8V6H16l-1,2
		H28z"/>
</g>
<g id="Overlays">
	<g id="_编组_">
		<path id="_复合路径_" class="st1" d="M20,32c-2.2,0-4-1.7-4-3.8c0-0.1,0-0.1,0-0.2V18c0-2.2,1.7-4,3.8-4c0.1,0,0.1,0,0.2,0
			h8.8l3.2,4.1V28c0,2.2-1.7,4-3.8,4c-0.1,0-0.1,0-0.2,0H20z"/>
		<path id="_复合路径_2" class="st2" d="M26.6,16h-6.7c-1.1,0-1.9,0.8-1.9,1.9c0,0,0,0.1,0,0.1v10c0,1.1,0.8,1.9,1.8,2
			c0,0,0.1,0,0.1,0h8c1.1,0,2-0.8,2.1-1.9c0,0,0,0,0-0.1v-7.7L26.6,16z M28,24L28,24v4h-8V18h6v2h2V24z"/>
		<rect id="_路径_" x="22" y="20" class="st2" width="4" height="2.1"/>
		<rect id="_路径_2" x="22" y="24" class="st2" width="4" height="2"/>
	</g>
</g>
</svg>
