<?xml version="1.0" encoding="utf-8"?>
<!-- Generator: Adobe Illustrator 21.0.0, SVG Export Plug-In . SVG Version: 6.00 Build 0)  -->
<svg version="1.1" id="Ebene_1" xmlns="http://www.w3.org/2000/svg" xmlns:xlink="http://www.w3.org/1999/xlink" x="0px" y="0px"
	 viewBox="0 0 32 32" style="enable-background:new 0 0 32 32;" xml:space="preserve">
<style type="text/css">
	.st0{fill:#85ADCB;}
	.st1{fill:#252526;}
	.st2{fill:#DCDBDD;}
</style>
<title>folder.dist.open</title>
<g id="Bases">
	<g id="_编组_">
		<path id="_复合路径_" class="st0" d="M28,4c1.1,0,2,0.9,2,2v18c0,1.1-0.8,2-1.8,2c-0.1,0-0.1,0-0.2,0V6H16l-2,4H6v6h16l6,10H6
			L0,16h4v-6c0-2,2.5-2,2-2h7l2-4H28z"/>
	</g>
</g>
<g id="Overlays">
	<g id="_编组_2">
		<polygon id="_路径_" class="st1" points="18,17 25,13 32,17 32,32 18,32 		"/>
		<path id="_复合路径_2" class="st2" d="M30,18l-3.1-2L25,20l-1.5-4L20,18l3,2h-3v10h10V20h-3L30,18z M24,28h-2v-2h2V28z M24,24
			h-2v-2h2V24z M28,28h-2v-2h2V28z M28,22v2h-2v-2H28z"/>
	</g>
</g>
</svg>
