<?xml version="1.0" encoding="utf-8"?>
<!-- Generator: Adobe Illustrator 21.0.0, SVG Export Plug-In . SVG Version: 6.00 Build 0)  -->
<svg version="1.1" id="Ebene_1" xmlns="http://www.w3.org/2000/svg" xmlns:xlink="http://www.w3.org/1999/xlink" x="0px" y="0px"
	 viewBox="0 0 32 32" style="enable-background:new 0 0 32 32;" xml:space="preserve">
<style type="text/css">
	.st0{fill:#85ADCB;}
	.st1{fill:#F77737;}
	.st2{fill:#252526;}
</style>
<title>folder.js.open</title>
<g id="Bases">
	<g id="_编组_">
		<path id="_复合路径_" class="st0" d="M28,4c1.1,0,2,0.9,2,2v18c0,1.1-0.8,2-1.8,2c-0.1,0-0.1,0-0.2,0V6H16l-2,4H6v6h16l6,10H6
			L0,16h4v-6c0-2,2.5-2,2-2h7l2-4H28z"/>
	</g>
</g>
<g id="Overlays">
	<g id="_编组_2">
		<g id="_编组_3">
			<path class="st1" d="M13.2,31c-0.4,0-0.9,0-1.3-0.1c-0.4-0.1-0.8-0.1-1.2-0.3l-0.8-0.3l0.4-3.3l1.3-0.8c0.4,0.1,0.8,0.2,1.2,0.2
				c0.2,0,0.3,0,0.5,0c0.1,0,0.2-0.1,0.2-0.1c0.1,0,0.1-0.1,0.1-0.2c0.1-0.2,0.1-0.3,0.2-0.5C14,25.3,14,25,14,24.7V15h5v9.7
				c0,0.8-0.1,1.5-0.2,2.3c-0.2,0.6-0.4,1.3-0.8,1.8c-0.3,0.5-0.8,1-1.3,1.3c-0.5,0.3-1.1,0.6-1.6,0.7C14.5,30.9,13.9,31,13.2,31z"
				/>
			<path class="st2" d="M18,16v8.7c0,0.7-0.1,1.4-0.2,2c-0.1,0.5-0.3,1-0.6,1.5c-0.3,0.4-0.6,0.7-1,1c-0.4,0.3-0.9,0.5-1.3,0.6
				c-0.5,0.1-1.1,0.2-1.6,0.2c-0.4,0-0.8,0-1.2-0.1c-0.3,0-0.7-0.1-1-0.2l0.3-2.5c0.5,0.2,1,0.2,1.6,0.2c0.2,0,0.5,0,0.7-0.1
				c0.2-0.1,0.4-0.1,0.6-0.3c0.2-0.1,0.3-0.3,0.4-0.5c0.1-0.2,0.2-0.5,0.3-0.8c0.1-0.4,0.1-0.7,0.1-1.1V16H18 M20,14h-7v10.7
				c0,0.2,0,0.5-0.1,0.7l0,0l0,0c-0.3,0-0.6,0-0.9-0.1l-2.7,1.6L9,29.4L8.8,31l1.6,0.5c0.5,0.2,0.9,0.3,1.4,0.3
				c0.5,0.1,1,0.1,1.5,0.1c0.7,0,1.4-0.1,2.1-0.2c0.7-0.2,1.4-0.4,2-0.8c0.6-0.4,1.2-1,1.6-1.6c0.4-0.7,0.7-1.4,0.9-2.1
				c0.2-0.8,0.2-1.6,0.2-2.5L20,14L20,14z"/>
		</g>
		<g id="_编组_4">
			<path class="st1" d="M24.6,31c-0.8,0-1.6-0.1-2.4-0.3c-0.7-0.2-1.3-0.4-1.9-0.7l-0.7-0.4l0.8-3.3l1.4-0.6
				c0.4,0.2,0.9,0.4,1.4,0.5c0.5,0.1,1,0.2,1.5,0.2c0.3,0,0.7,0,1-0.2c0.1,0,0.1-0.1,0.1-0.2c0-0.1,0-0.2-0.1-0.3
				c-0.4-0.3-0.9-0.6-1.5-0.7c-2.9-1-4.4-2.7-4.4-5c0-0.7,0.2-1.4,0.5-2c0.3-0.6,0.7-1.2,1.3-1.6c0.6-0.5,1.3-0.8,2-1
				c0.8-0.2,1.6-0.4,2.4-0.4c1.3,0,2.7,0.2,3.9,0.8l0.8,0.4l-0.9,3.3L28.3,20c-0.7-0.3-1.5-0.5-2.3-0.5c-0.3,0-0.6,0-0.9,0.2
				C25,19.8,25,19.8,25,19.8c0,0.1,0,0.1,0.1,0.1c0.1,0.1,0.2,0.1,0.3,0.2c0.2,0.1,0.4,0.2,0.6,0.3l0.9,0.4c1.1,0.4,2.2,1,3,1.9
				c0.7,0.8,1.1,1.9,1.1,3c0,0.6-0.1,1.1-0.3,1.6c-0.2,0.5-0.5,1-0.8,1.5c-0.4,0.4-0.8,0.8-1.3,1.1c-0.6,0.3-1.2,0.6-1.8,0.7
				C26.1,30.9,25.3,31,24.6,31z"/>
			<path class="st2" d="M26,16c1.2,0,2.4,0.2,3.4,0.7l-0.7,2.5c-0.9-0.4-1.8-0.6-2.8-0.6c-0.5,0-1,0.1-1.5,0.4
				c-0.5,0.3-0.6,0.9-0.4,1.4c0.1,0.1,0.2,0.3,0.3,0.4c0.1,0.1,0.3,0.3,0.5,0.4c0.2,0.1,0.5,0.2,0.7,0.3l0.9,0.4
				c1,0.3,1.9,0.9,2.6,1.6c0.6,0.7,0.9,1.5,0.8,2.4c0,0.4-0.1,0.9-0.2,1.3c-0.1,0.4-0.4,0.8-0.6,1.1c-0.3,0.4-0.7,0.7-1.1,0.9
				c-0.5,0.3-1,0.5-1.5,0.6c-0.7,0.2-1.3,0.2-2,0.2c-0.7,0-1.4-0.1-2.1-0.2c-0.6-0.1-1.1-0.3-1.7-0.6l0.6-2.5c0.5,0.3,1,0.5,1.6,0.6
				c0.6,0.2,1.2,0.2,1.8,0.2c0.6,0,1.1-0.1,1.6-0.4c0.4-0.2,0.6-0.6,0.6-1c0-0.4-0.2-0.8-0.5-1c-0.5-0.4-1.1-0.7-1.8-0.9
				c-2.5-0.9-3.7-2.2-3.7-4c0-0.6,0.1-1.1,0.4-1.6c0.2-0.5,0.6-0.9,1-1.3c0.5-0.4,1-0.7,1.6-0.9C24.6,16.2,25.3,16,26,16 M26,14
				c-0.9,0-1.9,0.1-2.7,0.4c-0.8,0.3-1.6,0.7-2.3,1.2c-0.6,0.5-1.2,1.2-1.5,2c-0.4,0.8-0.6,1.6-0.5,2.5c0,2.1,1.1,4,3,5l-2.5,1.1
				l-0.6,2.5l-0.4,1.5l1.3,0.7c0.7,0.4,1.4,0.6,2.2,0.8c0.9,0.2,1.7,0.3,2.6,0.3c0.8,0,1.6-0.2,2.4-0.4c0.7-0.2,1.4-0.5,2.1-0.8
				c0.6-0.4,1.1-0.8,1.6-1.4c0.4-0.5,0.8-1.1,1-1.8c0.2-0.6,0.3-1.3,0.3-1.9c0-1.4-0.4-2.7-1.3-3.7c-0.5-0.6-1.2-1.1-1.9-1.5l2-0.9
				l0.7-2.5l0.5-1.6l-1.5-0.7C29,14.3,27.5,14,26,14z"/>
		</g>
	</g>
</g>
</svg>
