<?xml version="1.0" encoding="utf-8"?>
<!-- Generator: Adobe Illustrator 21.0.0, SVG Export Plug-In . SVG Version: 6.00 Build 0)  -->
<svg version="1.1" id="Ebene_1" xmlns="http://www.w3.org/2000/svg" xmlns:xlink="http://www.w3.org/1999/xlink" x="0px" y="0px"
	 viewBox="0 0 32 32" style="enable-background:new 0 0 32 32;" xml:space="preserve">
<style type="text/css">
	.st0{fill:#85ADCB;}
	.st1{fill:#018FD4;}
	.st2{fill:#252526;}
	.st3{fill:#1B9AD9;}
	.st4{fill:#007CB9;}
	.st5{fill:#34A3DD;}
</style>
<title>folder.vs.open</title>
<g id="Bases">
	<g id="_编组_">
		<path id="_复合路径_" class="st0" d="M28,4c1.1,0,2,0.9,2,2v18c0,1.1-0.8,2-1.8,2c-0.1,0-0.1,0-0.2,0V6H16l-2,4H6v6h16l6,10H6
			L0,16h4v-6c0-2,2.5-2,2-2h7l2-4H28z"/>
	</g>
</g>
<g id="Overlays">
	<g id="_编组_2">
		<g id="_编组_3">
			<g id="_编组_4">
				<path class="st1" d="M17.1,31c-0.2,0-0.5-0.1-0.7-0.2l-1.6-0.7l-0.9-0.4c-0.4-0.1-0.7-0.4-0.8-0.8c-0.1-0.4,0-0.7,0.3-1l0.3-0.2
					l2.8-2.7l2.2-2.1l0.1-0.1c0.1-0.1,0.1-0.2,0.2-0.3l0.1-0.1l0.2-0.2l1.9-1.8l4.7-4.6c0.4-0.4,0.9-0.5,1.4-0.3l2.2,1l0.8,0.4
					c0.4,0.2,0.6,0.5,0.6,0.9v10.8c0.1,0.5-0.4,1-0.9,1.1c-0.4,0-0.9-0.2-1-0.6c-0.1-0.3-0.2-0.6-0.2-0.9v-7.9l-3.6,3.4
					c-0.1,0.3-0.3,0.5-0.6,0.6l-1.8,1.7c-0.1,0.2-0.2,0.3-0.4,0.4l-0.6,0.5c-1.3,1.2-2.5,2.5-3.8,3.7C17.8,30.8,17.4,31,17.1,31z"/>
				<path class="st2" d="M26.9,16.3H27l3,1.4c0,0.1,0,0.3,0,0.4c0,3.3,0,6.7,0,10v0.4c-0.1-0.1-0.1-0.3-0.1-0.4c0-2.6,0-5.2,0-7.8
					c0-0.7,0-1.5,0-2.2c0-0.1,0-0.1,0-0.2l0,0c0,0-0.1,0-0.1,0.1l-3,2.7L24.5,23c-0.1,0.1-0.2,0.1-0.1,0.3l0,0c-0.1,0-0.1,0-0.2,0.1
					l-2.1,2c0,0,0,0,0,0.1s-0.2,0.1-0.3,0.2c-1.5,1.4-2.9,2.8-4.4,4.2c-0.1,0.1-0.2,0.2-0.3,0.2c-0.1,0-0.2,0-0.2-0.1
					c-0.8-0.4-1.7-0.8-2.5-1.2c-0.1,0-0.2,0-0.3-0.2l0.3-0.3l2.8-2.7l2.2-2.1c0.1-0.1,0.3-0.2,0.3-0.4s0.3-0.2,0.4-0.3l1.9-1.9
					l3.7-3.5l1-1C26.8,16.4,26.8,16.3,26.9,16.3 M26.9,14.3c-0.6,0-1.2,0.2-1.6,0.7l-0.2,0.2L24.3,16l-2.7,2.5l-1,1L20.1,20
					l-1.4,1.4l-0.1,0.1l-0.2,0.1c-0.2,0.1-0.3,0.3-0.4,0.4l0,0l-1.6,1.6l-0.5,0.5l-0.7,0.6L13,26.8l-0.1,0.1L12.7,27
					c-0.6,0.5-0.8,1.3-0.6,2.1c0.2,0.7,0.7,1.2,1.4,1.4l0.9,0.4l1.6,0.8c0.3,0.2,0.7,0.3,1.1,0.3c0.6,0,1.3-0.3,1.7-0.7
					c1.3-1.3,2.6-2.5,3.9-3.7l0.4-0.4c0.2-0.1,0.4-0.3,0.6-0.5l1.6-1.6c0.4-0.2,0.6-0.5,0.8-0.8l1.5-1.5l0.2-0.2c0,1.9,0,3.7,0,5.6
					c0,0.5,0.1,1,0.3,1.4c0.5,1,1.7,1.3,2.7,0.8c0.6-0.3,1.1-1,1.1-1.8V18.2c0-0.1,0-0.1,0-0.2v-0.2c0-0.8-0.4-1.5-1.2-1.9L30,15.6
					l-2.2-1C27.5,14.4,27.2,14.3,26.9,14.3L26.9,14.3z M26.3,22.6L26.3,22.6z M22.4,27.4L22.4,27.4z"/>
			</g>
			<g id="_编组_5">
				<path class="st3" d="M26.9,31c-0.3,0-0.6-0.1-0.9-0.4c-0.3-0.3-0.3-0.7-0.2-1.1v-5.2v-3.2c-0.1-0.4,0-0.7,0.3-1l3-2.8
					c0.3-0.5,0.9-0.6,1.4-0.4c0.1,0,0.1,0.1,0.2,0.1c0.3,0.3,0.4,0.6,0.3,1v3.3c0,2.3,0,4.6,0,6.9c0,0.6-0.3,1.1-0.9,1.4l-1.7,0.8
					l-0.9,0.4C27.3,30.9,27.1,31,26.9,31z"/>
				<path class="st2" d="M29.9,17.7c0.1,0.1,0,0.2,0,0.3c0,3.4,0,6.8,0,10.3c0,0.2-0.1,0.4-0.3,0.4c-0.9,0.4-1.8,0.8-2.6,1.2
					C27,29.9,27,30,26.9,30c0,0-0.1,0-0.1-0.1c0.1-0.1,0.1-0.2,0.1-0.3c0-1.4,0-2.7,0-4.1c0-1.5,0-3,0-4.4c0-0.1,0-0.2,0-0.3
					l2.8-2.7c0,0,0.1-0.1,0.1-0.1l0,0c0.1,0,0,0.1,0,0.2c0,0.7,0,1.5,0,2.2c0,2.6,0,5.2,0,7.8c0,0.1,0,0.3,0.1,0.4v-0.4
					c0-3.3,0-6.7,0-10C29.9,18,29.9,17.8,29.9,17.7 M29.9,15.7c-0.7,0-1.3,0.3-1.6,0.9l-0.1,0.1l-2.3,2.2l-0.5,0.5
					c-0.5,0.5-0.7,1.2-0.6,1.9c0,1.1,0,2.3,0,3.5v4.7c-0.2,0.7,0,1.4,0.4,1.9c0.4,0.5,1,0.8,1.6,0.8c0.4,0,0.8-0.1,1.1-0.3l0.9-0.4
					l1.7-0.8c0.9-0.4,1.5-1.3,1.5-2.3c0-2.3,0-4.6,0-6.9v-3.2c0.1-0.7-0.2-1.3-0.6-1.8C31,15.9,30.5,15.7,29.9,15.7L29.9,15.7z"/>
			</g>
			<g id="_编组_6">
				<path class="st4" d="M14,29.6c-0.5,0-1-0.4-1-0.9l1-0.1h-1c0-0.1,0-0.2,0-0.3V18c0-0.1,0-0.2,0-0.3c0-0.4,0.3-0.7,0.7-0.9
					c0.1,0,0.3-0.1,0.4-0.1c0.2,0,0.5,0.1,0.6,0.2l0.6,0.5l0.6,0.6c0.3,0.3,0.5,0.5,0.8,0.8c0.4,0.4,0.8,0.8,1.2,1.2
					c0.1,0.2,0.2,0.4,0.2,0.6c0,0,0,1.6,0,2.1v2.6c0,0.3-0.1,0.5-0.3,0.7L15,29l-0.3,0.3C14.5,29.5,14.3,29.6,14,29.6z"/>
				<path class="st2" d="M14,17.8l0.6,0.6c0.5,0.5,0.9,0.9,1.4,1.4c0.4,0.3,0.8,0.7,1.1,1.1c0,0.7,0,1.4,0,2.1c0,0.9,0,1.7,0,2.6
					l-2.8,2.7L14,28.6c0-0.1,0-0.2,0-0.3c0-3.4,0-6.8,0-10.2C14,17.9,14,17.8,14,17.8 M14,15.8c-1,0-1.9,0.8-2,1.8l0,0
					c0,0.1,0,0.3,0,0.4c0,3.4,0,6.8,0,10.2c0,0.1,0,0.3,0,0.4c0.1,0.8,0.5,1.4,1.3,1.7c0.2,0.1,0.5,0.1,0.8,0.1c0.5,0,1-0.2,1.3-0.5
					l0.1-0.1l0.3-0.2l2.2-2.1l0.6-0.6c0.4-0.4,0.6-0.9,0.6-1.5v-0.8c0-0.6,0-1.2,0-1.8s0-1,0-1.5v-0.7c0-0.4-0.2-0.9-0.4-1.2
					c-0.4-0.5-0.9-1-1.3-1.4c-0.3-0.2-0.5-0.5-0.8-0.8L16,16.8l-0.4-0.4l-0.2-0.2C15,15.9,14.5,15.7,14,15.8L14,15.8z"/>
			</g>
			<g id="_编组_7">
				<path class="st5" d="M19.7,24.1c-0.3,0-0.5-0.1-0.7-0.3l-2.3-2.1c-0.1-0.1-0.2-0.2-0.3-0.3c-0.3-0.4-0.6-0.7-1-1
					c-0.3-0.3-0.6-0.6-0.9-0.9L13.9,19l-0.6-0.6c-0.4-0.4-0.4-1-0.1-1.4c0,0,0.1-0.1,0.1-0.1c0.3-0.2,0.6-0.4,0.9-0.5l0.2-0.1
					l1.1-0.5l0.9-0.4c0.2-0.1,0.4-0.1,0.6-0.1c0.3,0,0.7,0.1,0.9,0.4l3.6,3.4l1.1,1.1c0.4,0.4,0.4,1,0,1.4c0,0,0,0,0,0l-1.9,1.9
					c-0.1,0.1-0.2,0.2-0.4,0.3l-0.1,0.1C20.1,24,19.9,24.1,19.7,24.1z"/>
				<path class="st2" d="M17.1,16.3c0.1,0,0.1,0,0.2,0.1l4.7,4.5l-1.9,1.8c-0.1,0.1-0.3,0.2-0.4,0.3L17.4,21
					c-0.1-0.1-0.1-0.2-0.3-0.2c-0.3-0.4-0.7-0.8-1.1-1.1c-0.5-0.4-1-0.9-1.4-1.4L14,17.8c0.3-0.2,0.6-0.3,0.9-0.4
					c0.7-0.3,1.3-0.6,2-0.9C16.9,16.4,17,16.3,17.1,16.3 M17,14.3c-0.3,0-0.7,0.1-1,0.2L15.2,15L14,15.5l-0.2,0.1
					c-0.4,0.2-0.8,0.4-1.1,0.6c-0.9,0.7-1,2-0.3,2.8c0.1,0.1,0.1,0.1,0.2,0.2l0.2,0.2l0.4,0.4l0.5,0.5c0.3,0.3,0.6,0.6,1,0.9
					c0.3,0.3,0.6,0.5,0.8,0.9c0.1,0.2,0.3,0.3,0.5,0.5l1.7,1.6l0.5,0.5c0.7,0.7,1.9,0.7,2.6,0.1l0.1-0.1c0.1-0.1,0.3-0.2,0.4-0.4
					l1.4-1.4l0.5-0.5c0.8-0.8,0.8-2,0.1-2.8c0,0,0,0-0.1-0.1l-1-0.9L18.7,15C18.3,14.6,17.7,14.3,17,14.3L17,14.3z"/>
			</g>
			<g id="_编组_8">
				<path class="st5" d="M26.8,30.9c-0.3,0-0.5-0.1-0.7-0.3l-0.5-0.5l-1.1-1l-3.2-3.1c-0.3-0.3-0.4-0.6-0.3-1c0-0.2,0.1-0.4,0.3-0.5
					l2.1-2c0.2-0.2,0.5-0.4,0.9-0.4h0.1c0.2,0,0.4,0.1,0.5,0.2c0.5,0.5,1,0.9,1.5,1.4l0.8,0.7l0,0c0.3,0.2,0.6,0.5,0.6,0.9v4.1
					c0,0.3-0.1,0.5-0.2,0.7c-0.1,0.3-0.4,0.5-0.7,0.5L26.8,30.9z"/>
				<path class="st2" d="M24.3,23.2L24.3,23.2c0.8,0.6,1.5,1.4,2.2,2.1c0.1,0.1,0.1,0.2,0.3,0.2c0,1.4,0,2.7,0,4.1
					c0,0.1,0,0.2-0.1,0.3l-1.5-1.5L22,25.4c0,0,0,0,0-0.1l2.1-2C24.1,23.3,24.2,23.2,24.3,23.2 M24.3,21.2c-0.6,0-1.1,0.2-1.6,0.6
					l-2.1,2c-0.3,0.3-0.5,0.7-0.6,1.1c-0.1,0.7,0.1,1.4,0.6,1.8l0.9,0.9l2.3,2.2l1.1,1l0.5,0.5c0.8,0.8,2.1,0.7,2.8-0.1
					c0.1-0.1,0.2-0.3,0.3-0.5c0.2-0.4,0.3-0.8,0.3-1.2v-4.1c0-0.7-0.4-1.3-1-1.7l-0.7-0.7c-0.5-0.5-1-1-1.5-1.4
					c-0.3-0.3-0.7-0.4-1.1-0.5L24.3,21.2z"/>
			</g>
		</g>
		<g id="_编组_9">
			<path id="_路径_" class="st1" d="M22,25.4c-0.1,0-0.2,0.1-0.3,0.2c-1.5,1.4-2.9,2.8-4.4,4.2C17.2,30,17,30,16.8,29.9
				c-0.8-0.4-1.7-0.8-2.5-1.2c-0.1,0-0.2,0-0.3-0.2l0.3-0.3l2.8-2.7l2.2-2.1c0.1-0.1,0.3-0.2,0.3-0.4s0.3-0.2,0.4-0.3l2-1.8l3.7-3.5
				l1-1c0.1-0.1,0.1-0.1,0.3-0.1l3,1.4c0,0.1,0,0.3,0,0.4c0,3.3,0,6.7,0,10v0.4c-0.1-0.1-0.1-0.3-0.1-0.4c0-2.6,0-5.2,0-7.8
				c0-0.7,0-1.4,0-2.2c0-0.1,0-0.1,0-0.2s-0.1,0-0.2,0.1l-2.9,2.6L24.5,23c-0.1,0.1-0.2,0.1-0.1,0.3c-0.1,0-0.2,0-0.2,0.1L22,25.4
				C22.1,25.4,22,25.4,22,25.4z"/>
			<path id="_路径_2" class="st3" d="M26.8,20.8l2.8-2.7c0,0,0.1-0.1,0.2-0.1s0,0.1,0,0.2c0,0.7,0,1.5,0,2.2c0,2.6,0,5.2,0,7.8
				c0,0.1,0,0.3,0.1,0.4v-0.4c0-3.3,0-6.7,0-10c0-0.1,0-0.3,0-0.4c0.1,0.1,0,0.2,0,0.3c0,3.4,0,6.8,0,10.3c0,0.2-0.1,0.4-0.3,0.4
				c-0.9,0.4-1.8,0.8-2.6,1.2c-0.1,0-0.2,0.1-0.3,0c0.1-0.1,0.1-0.2,0.1-0.3c0-1.4,0-2.7,0-4.1c0-1.5,0-3,0-4.4
				C26.9,21,26.9,20.9,26.8,20.8z"/>
			<path id="_路径_3" class="st4" d="M17.2,25.5l-2.8,2.7L14,28.5c0-0.1,0-0.2,0-0.3c0-3.4,0-6.8,0-10.2c0-0.1,0-0.2,0-0.3
				l0.6,0.6c0.5,0.5,0.9,0.9,1.4,1.4c0.4,0.3,0.8,0.7,1.1,1.1c0,0.7,0,1.4,0,2.1C17.1,23.8,17.1,24.7,17.2,25.5z"/>
			<path id="_路径_4" class="st5" d="M17.1,20.8c-0.3-0.4-0.7-0.8-1.1-1.1c-0.5-0.4-1-0.9-1.4-1.4L14,17.8
				c0.3-0.2,0.6-0.3,0.9-0.4c0.7-0.3,1.3-0.6,2-0.9c0.1-0.1,0.3-0.1,0.4,0l4.7,4.5l-1.9,1.8c-0.1,0.1-0.3,0.2-0.4,0.3L17.4,21
				C17.4,20.9,17.3,20.8,17.1,20.8z"/>
			<path id="_路径_5" class="st5" d="M26.9,25.5c0,1.4,0,2.7,0,4.1c0,0.1,0,0.2-0.1,0.3l-1.5-1.5L22,25.4c0,0,0,0,0-0.1l2.1-2
				c0.1-0.1,0.1-0.1,0.2-0.1c0.8,0.6,1.5,1.4,2.2,2.1C26.6,25.4,26.7,25.5,26.9,25.5z"/>
		</g>
	</g>
</g>
</svg>
